<svg xmlns="http://www.w3.org/2000/svg" width="1200" height="640" viewBox="0 0 1200 640">
  <rect width="100%" height="100%" fill="#0f172a"/>
  <rect x="32" y="32" width="1136" height="88" rx="8" fill="#111827" />
  <text x="56" y="86" fill="#fff" font-family="Segoe UI, Arial" font-size="28">Ha-ti Data Intelligence — Streamlit Dashboard</text>

  <!-- Left sidebar -->
  <rect x="32" y="136" width="240" height="456" rx="8" fill="#0b1220" />
  <g fill="#9ca3af" font-family="Segoe UI, Arial" font-size="14">
    <text x="52" y="172">Overview</text>
    <text x="52" y="200">Indicators</text>
    <text x="52" y="228">Datasets</text>
    <text x="52" y="256">Crawl / Run</text>
    <text x="52" y="284">Settings</text>
  </g>

  <!-- Main panels -->
  <rect x="288" y="136" width="440" height="216" rx="8" fill="#0b1220" />
  <rect x="740" y="136" width="428" height="216" rx="8" fill="#0b1220" />

  <rect x="288" y="368" width="880" height="224" rx="8" fill="#0b1220" />

  <!-- Mock charts and tables -->
  <g fill="#60a5fa">
    <rect x="308" y="156" width="160" height="16" rx="4" />
    <rect x="308" y="184" width="280" height="12" rx="4" />
    <rect x="760" y="156" width="80" height="80" rx="6" fill="#34d399" />
    <rect x="760" y="252" width="260" height="12" rx="4" fill="#93c5fd" />
  </g>

  <g fill="#cbd5e1" font-family="Segoe UI, Arial" font-size="12">
    <text x="308" y="210">Top indicators (preview)</text>
    <text x="760" y="210">Latest dataset</text>
  </g>

  <g fill="#e5e7eb">
    <rect x="308" y="392" width="840" height="176" rx="6" fill="#071029"/>
  </g>

  <text x="320" y="420" fill="#9ca3af" font-family="Segoe UI, Arial" font-size="14">Extracted tables preview</text>

  <text x="56" y="616" fill="#6b7280" font-family="Segoe UI, Arial" font-size="12">Generated placeholder — replace with real screenshot</text>
</svg>
